<svg width="16" height="16" viewBox="0 0 16 16" fill="none" xmlns="http://www.w3.org/2000/svg">
<mask id="mask0" mask-type="alpha" maskUnits="userSpaceOnUse" x="0" y="0" width="16" height="16">
<path d="M7.3335 4.66671H8.66683V6.00004H7.3335V4.66671Z" fill="#007079"/>
<path d="M7.3335 7.33337H8.66683V11.3334H7.3335V7.33337Z" fill="#007079"/>
<path fill-rule="evenodd" clip-rule="evenodd" d="M1.3335 8.00004C1.3335 4.32004 4.32015 1.33337 8.00016 1.33337C11.6802 1.33337 14.6668 4.32004 14.6668 8.00004C14.6668 11.68 11.6802 14.6667 8.00016 14.6667C4.32015 14.6667 1.3335 11.68 1.3335 8.00004ZM2.66683 8.00004C2.66683 10.94 5.06014 13.3334 8.00016 13.3334C10.9402 13.3334 13.3335 10.94 13.3335 8.00004C13.3335 5.06004 10.9402 2.66671 8.00016 2.66671C5.06014 2.66671 2.66683 5.06004 2.66683 8.00004Z" fill="#007079"/>
</mask>
<g mask="url(#mask0)">
<rect width="16" height="16" fill="#007079"/>
</g>
</svg>
