<svg width="16" height="16" viewBox="0 0 16 16" fill="none" xmlns="http://www.w3.org/2000/svg">
<mask id="mask0" mask-type="alpha" maskUnits="userSpaceOnUse" x="0" y="0" width="16" height="16">
<path fill-rule="evenodd" clip-rule="evenodd" d="M11.3332 5.66667H11.9998C12.7332 5.66667 13.3332 6.26667 13.3332 7V13.6667C13.3332 14.4 12.7332 15 11.9998 15H3.99984C3.2665 15 2.6665 14.4 2.6665 13.6667V7C2.6665 6.26667 3.2665 5.66667 3.99984 5.66667H4.6665V4.33333C4.6665 2.49333 6.15984 1 7.99984 1C9.83984 1 11.3332 2.49333 11.3332 4.33333V5.66667ZM7.99984 2.33333C6.89317 2.33333 5.99984 3.22667 5.99984 4.33333V5.66667H9.99984V4.33333C9.99984 3.22667 9.1065 2.33333 7.99984 2.33333ZM3.99984 13.6667V7H11.9998V13.6667H3.99984ZM9.33317 10.3333C9.33317 11.0667 8.73317 11.6667 7.99984 11.6667C7.2665 11.6667 6.6665 11.0667 6.6665 10.3333C6.6665 9.6 7.2665 9 7.99984 9C8.73317 9 9.33317 9.6 9.33317 10.3333Z" fill="#007079"/>
</mask>
<g mask="url(#mask0)">
<rect width="16" height="16" fill="#007079"/>
</g>
</svg>
