<svg width="16" height="16" viewBox="0 0 16 16" fill="none" xmlns="http://www.w3.org/2000/svg">
<mask id="mask0" mask-type="alpha" maskUnits="userSpaceOnUse" x="0" y="0" width="16" height="16">
<path fill-rule="evenodd" clip-rule="evenodd" d="M8.00016 1.33337C4.32016 1.33337 1.3335 4.32004 1.3335 8.00004C1.3335 11.68 4.32016 14.6667 8.00016 14.6667C11.6802 14.6667 14.6668 11.68 14.6668 8.00004C14.6668 4.32004 11.6802 1.33337 8.00016 1.33337ZM4.7135 12.1867C5.00016 11.5867 6.74683 11 8.00016 11C9.2535 11 11.0068 11.5867 11.2868 12.1867C10.3802 12.9067 9.24016 13.3334 8.00016 13.3334C6.76016 13.3334 5.62016 12.9067 4.7135 12.1867ZM8.00016 9.66671C8.9735 9.66671 11.2868 10.06 12.2402 11.22C12.9202 10.3267 13.3335 9.21337 13.3335 8.00004C13.3335 5.06004 10.9402 2.66671 8.00016 2.66671C5.06016 2.66671 2.66683 5.06004 2.66683 8.00004C2.66683 9.21337 3.08016 10.3267 3.76016 11.22C4.7135 10.06 7.02683 9.66671 8.00016 9.66671ZM8.00016 4.00004C6.70683 4.00004 5.66683 5.04004 5.66683 6.33337C5.66683 7.62671 6.70683 8.66671 8.00016 8.66671C9.2935 8.66671 10.3335 7.62671 10.3335 6.33337C10.3335 5.04004 9.2935 4.00004 8.00016 4.00004ZM7.00016 6.33337C7.00016 6.88671 7.44683 7.33337 8.00016 7.33337C8.5535 7.33337 9.00016 6.88671 9.00016 6.33337C9.00016 5.78004 8.5535 5.33337 8.00016 5.33337C7.44683 5.33337 7.00016 5.78004 7.00016 6.33337Z" fill="#007079"/>
</mask>
<g mask="url(#mask0)">
<rect width="16" height="16" fill="#007079"/>
</g>
</svg>
